<svg width="213" height="29" viewBox="0 0 213 29" fill="none" xmlns="http://www.w3.org/2000/svg">
<path d="M54.1808 5.26802C54.1816 5.73619 54.0435 6.19406 53.7842 6.5837C53.5249 6.97333 53.1559 7.27722 52.7239 7.4569C52.292 7.63658 51.8165 7.68398 51.3576 7.59311C50.8987 7.50224 50.4771 7.27717 50.1461 6.94639C49.8151 6.6156 49.5895 6.19398 49.498 5.73486C49.4064 5.27574 49.453 4.79976 49.6319 4.36715C49.8107 3.93455 50.1137 3.56476 50.5026 3.30458C50.8915 3.0444 51.3488 2.90552 51.8165 2.90552C52.4423 2.90751 53.0419 3.15694 53.4848 3.59946C53.9276 4.04197 54.1778 4.64171 54.1808 5.26802" fill="black"/>
<path d="M55.562 1.04832C55.5605 1.25398 55.4982 1.45459 55.3828 1.62482C55.2675 1.79504 55.1044 1.92724 54.914 2.00473C54.7237 2.08223 54.5146 2.10153 54.3133 2.06021C54.112 2.01889 53.9275 1.9188 53.783 1.77258C53.6385 1.62636 53.5405 1.44056 53.5014 1.23864C53.4623 1.03672 53.4839 0.827742 53.5634 0.638086C53.6429 0.448431 53.7768 0.286604 53.9481 0.173038C54.1194 0.0594729 54.3205 -0.000738302 54.526 6.83317e-06C54.6629 0.000503145 54.7983 0.0280402 54.9245 0.081039C55.0507 0.134038 55.1653 0.211455 55.2615 0.30885C55.3578 0.406246 55.4339 0.521703 55.4854 0.648598C55.537 0.775494 55.563 0.911331 55.562 1.04832" fill="black"/>
<path d="M12.9788 8.22681L8.50831 15.4321L4.03405 8.22681H0V25.2581H3.66594V14.2128L8.40964 21.4143H8.50831L13.2938 14.1407V25.2581H17.0128V8.22681H12.9788Z" fill="black"/>
<path d="M54.5222 8.22681H57.9718L65.9451 18.7137V8.22681H69.6376V25.2581H66.4574L58.2147 14.4331V25.2581H54.5222V8.22681Z" fill="black"/>
<path d="M72.5863 22.7665L74.795 20.1077C76.313 21.3763 77.9334 22.1778 79.8764 22.1778C81.3944 22.1778 82.3318 21.5701 82.3318 20.5711V20.5217C82.3318 19.576 81.7511 19.0898 78.9163 18.3606C75.5008 17.4832 73.2808 16.5374 73.2808 13.1532V13.119C73.2808 10.031 75.7589 7.99137 79.2313 7.99137C81.5253 7.95294 83.7609 8.71582 85.5537 10.1488L83.5917 12.9747C82.0737 11.9263 80.6051 11.2958 79.1744 11.2958C77.7437 11.2958 76.9809 11.9491 76.9809 12.7809V12.8265C76.9809 13.966 77.7133 14.3116 80.6506 15.0675C84.104 15.9677 86.0508 17.2059 86.0508 20.1723V20.2255C86.0508 23.6059 83.4778 25.5012 79.8005 25.5012C77.1419 25.5071 74.574 24.5337 72.5863 22.7665Z" fill="black"/>
<path d="M89.2993 8.22681H93.0412V14.9687H99.9442V8.22681H103.69V25.2581H99.9442V18.4213H93.0412V25.2581H89.2993V8.22681Z" fill="black"/>
<path d="M107.033 16.7919V16.7463C107.033 11.8998 110.847 7.93823 116.096 7.93823C121.344 7.93823 125.112 11.8542 125.112 16.6742V16.7273C125.112 21.5663 121.298 25.5354 116.05 25.5354C110.802 25.5354 107.033 21.6271 107.033 16.7919ZM121.204 16.7919V16.7463C121.204 13.8255 119.063 11.3908 116.05 11.3908C113.037 11.3908 110.942 13.7761 110.942 16.7084V16.7615C110.942 19.6786 113.086 22.1094 116.096 22.1094C119.105 22.1094 121.204 19.7279 121.204 16.7919" fill="black"/>
<path d="M131.712 11.6794H126.532V8.22681H140.63V11.6794H135.457V25.2543H131.712V11.6794Z" fill="black"/>
<path d="M151.586 24.4568V7.91553H150.546V25.4482H162.045V24.4568H151.586Z" fill="black"/>
<path d="M172.257 7.95352L172.193 7.81299H171.411L163.153 25.0911L162.982 25.452H164.098L166.531 20.3434H177.05L179.479 25.452H180.617L172.257 7.95352ZM167.016 19.3482L171.79 9.34368L176.568 19.3482H167.016Z" fill="black"/>
<path d="M193.889 16.4653C194.674 16.1376 195.341 15.5774 195.799 14.8599C196.258 14.1424 196.486 13.3017 196.454 12.4506C196.474 11.897 196.381 11.3452 196.18 10.8291C195.979 10.313 195.674 9.84361 195.285 9.44996C194.287 8.44722 192.678 7.93066 190.636 7.93066H183.399V25.4519H191.012C195.038 25.4519 197.346 23.7541 197.346 20.7459C197.346 18.7328 195.987 17.0996 193.877 16.4653H193.889ZM191.012 16.0855H184.45V8.91061H190.61C193.577 8.91061 195.414 10.2742 195.414 12.5227C195.414 15.1511 193.137 16.0893 191.023 16.0893L191.012 16.0855ZM184.45 17.0692H191.441C193.866 17.0692 196.317 18.2087 196.317 20.8067C196.317 23.116 194.386 24.4416 191.023 24.4416H184.45V17.0692Z" fill="black"/>
<path d="M206.928 16.0742C202.488 15.1702 201.615 14.0079 201.615 12.2569C201.615 10.5059 203.376 8.6676 206.317 8.6676C208.251 8.67756 210.127 9.32499 211.657 10.5097L211.858 10.6617L212.507 9.82606L212.305 9.66653C210.6 8.36399 208.512 7.66286 206.366 7.67246C203.118 7.67246 200.571 9.69312 200.571 12.3291C200.571 14.8549 202.256 16.1805 206.579 17.0503C211.095 17.9733 211.949 19.1089 211.949 20.9473C211.949 23.1579 209.903 24.6999 206.974 24.6999C205.821 24.7041 204.678 24.4808 203.612 24.0429C202.545 23.6049 201.575 22.9609 200.757 22.1475L200.579 21.9728L199.82 22.7325L200.01 22.9072C201.863 24.7052 204.347 25.7047 206.928 25.6913C210.495 25.6913 213 23.7276 213 20.8675C213 18.3075 211.292 16.9629 206.928 16.0742Z" fill="black"/>
<path d="M42.4087 5.177C37.9572 5.177 34.5569 8.04467 33.6233 11.8695C33.1225 13.6861 33.178 15.6113 33.7827 17.3959C33.7827 17.3959 33.7827 17.3959 33.7827 17.3959C34.0412 18.0643 34.17 18.7759 34.1622 19.4925V19.5419C34.1622 22.459 32.075 24.8404 29.0618 24.8404C26.0486 24.8404 23.9082 22.4096 23.9082 19.4925V19.4432C23.9082 16.5261 25.9955 14.1256 29.0087 14.1256C30.0154 14.1235 30.9989 14.4282 31.8283 14.9992C31.7296 13.3242 31.9156 12.1468 32.2875 11.2732C31.2568 10.8811 30.1644 10.6766 29.0618 10.6692C23.8058 10.6692 19.9918 14.6346 19.9918 19.4773V19.5267C19.9918 19.7356 19.9918 19.9369 19.9918 20.1458V28.2665L22.9974 26.1243C24.6716 27.5555 26.807 28.3314 29.0087 28.3082C33.4639 28.3082 36.8642 25.4444 37.7978 21.6158C38.3088 19.7698 38.2399 17.8112 37.6005 16.0058C37.5737 15.9236 37.5521 15.8399 37.5359 15.7551C37.3445 15.1844 37.2446 14.587 37.2399 13.9851V13.9357C37.2399 11.0149 39.3272 8.6182 42.3442 8.6182C45.3612 8.6182 47.4977 11.0529 47.4977 13.9737V14.0307C47.4977 16.9553 45.4029 19.3482 42.3897 19.3482C41.3979 19.3481 40.4284 19.0533 39.6042 18.5012C39.7274 19.7547 39.5585 21.0197 39.1109 22.1969C40.1433 22.5924 41.2386 22.7983 42.3442 22.8046C47.5964 22.8046 51.4103 18.8392 51.4103 14.0003V13.9509C51.4103 9.10817 47.6419 5.19219 42.3897 5.19219" fill="black"/>
</svg>
